<svg xmlns="http://www.w3.org/2000/svg" xmlns:xlink="http://www.w3.org/1999/xlink" width="100%" height="100%" version="1.1" viewBox="0 0 24 24" xml:space="preserve" style="fill-rule:evenodd;clip-rule:evenodd;stroke-linejoin:round;stroke-miterlimit:2"><g><path d="M17,21L7,21C6.451,21 6,20.549 6,20C6,19.451 6.451,19 7,19L17,19C17.549,19 18,19.451 18,20C18,20.549 17.549,21 17,21Z" transform="matrix(1,0,0,1,-4,-3)" style="fill:#ff2a4f;fill-rule:nonzero"/></g><g><path d="M21,17L3,17C2.451,17 2,16.549 2,16C2,15.451 2.451,15 3,15L21,15C21.549,15 22,15.451 22,16C22,16.549 21.549,17 21,17Z" transform="matrix(1,0,0,1,0,-4)" style="fill:#ff2a4f;fill-rule:nonzero"/></g><g><path d="M21,17L3,17C2.451,17 2,16.549 2,16C2,15.451 2.451,15 3,15L21,15C21.549,15 22,15.451 22,16C22,16.549 21.549,17 21,17Z" transform="matrix(1,0,0,1,0,-9)" style="fill:#ff2a4f;fill-rule:nonzero"/></g></svg>