<?xml version="1.0" encoding="UTF-8" standalone="no"?>
<!DOCTYPE svg PUBLIC "-//W3C//DTD SVG 1.1//EN" "http://www.w3.org/Graphics/SVG/1.1/DTD/svg11.dtd">
<svg width="100%" height="100%" viewBox="0 0 24 24" version="1.1" xmlns="http://www.w3.org/2000/svg" xmlns:xlink="http://www.w3.org/1999/xlink" xml:space="preserve" xmlns:serif="http://www.serif.com/" style="fill-rule:evenodd;clip-rule:evenodd;stroke-linejoin:round;stroke-miterlimit:2;">
    <g transform="matrix(1,0,0,1,-4,-3)">
        <path d="M17,21L7,21C6.451,21 6,20.549 6,20C6,19.451 6.451,19 7,19L17,19C17.549,19 18,19.451 18,20C18,20.549 17.549,21 17,21Z" style="fill:rgb(255,42,79);fill-rule:nonzero;"/>
    </g>
    <g transform="matrix(1,0,0,1,0,-4)">
        <path d="M21,17L3,17C2.451,17 2,16.549 2,16C2,15.451 2.451,15 3,15L21,15C21.549,15 22,15.451 22,16C22,16.549 21.549,17 21,17Z" style="fill:rgb(255,42,79);fill-rule:nonzero;"/>
    </g>
    <g transform="matrix(1,0,0,1,0,-9)">
        <path d="M21,17L3,17C2.451,17 2,16.549 2,16C2,15.451 2.451,15 3,15L21,15C21.549,15 22,15.451 22,16C22,16.549 21.549,17 21,17Z" style="fill:rgb(255,42,79);fill-rule:nonzero;"/>
    </g>
</svg>
