<?xml version="1.0" encoding="UTF-8" standalone="no"?>
<!DOCTYPE svg PUBLIC "-//W3C//DTD SVG 1.1//EN" "http://www.w3.org/Graphics/SVG/1.1/DTD/svg11.dtd">
<svg width="80px" height="16px" viewBox="0 0 80 16" version="1.1" xmlns="http://www.w3.org/2000/svg" xmlns:xlink="http://www.w3.org/1999/xlink" xml:space="preserve" style="fill-rule:evenodd;clip-rule:evenodd;stroke-linejoin:round;stroke-miterlimit:1.41421;"><path d="M74,2l-4,0l0,2l-4,0l0,2l2,0l0,7c0,0.553 0.447,1 1,1l6,0c0.553,0 1,-0.447 1,-1l0,-7l2,0l0,-2l-4,0l0,-2Zm0,4l0,6l-4,0l0,-6l4,0Z" style="fill:#FF2A4F;fill-rule:nonzero;"/>
<path id="Sound-Key" d="M53.325,5.682l-0.012,-0.001c0,0 -0.031,-1.042 0.225,-1.854c0.197,-0.625 0.695,-1.069 0.695,-1.069l6.713,-2.544c0,0 0.933,-0.17 1.284,0.441c0.329,0.573 0.22,1.738 0.186,2.033l-0.028,7.221l0.01,0.011c0,0 -0.002,0.536 -0.002,0.862c0,1.367 -0.756,2.05 -2.373,2.05c-1.618,0 -2.426,-0.683 -2.426,-2.05c0,-1.365 0.808,-2.049 2.426,-2.049c0.307,0 0.61,0.074 0.891,0.186l0,-5.617l-6.135,2.234c0.024,0.055 0.036,0.114 0.036,0.174l0,7.147c0.046,0.263 -0.012,0.596 -0.012,0.923c0,1.352 -0.759,2.028 -2.36,2.028c-1.601,0 -2.401,-0.676 -2.401,-2.028c0,-1.352 0.8,-2.029 2.401,-2.029c0.313,0 0.61,0.021 0.881,0.067l0,-6.108l0.001,-0.028Z" style="fill:#FF2A4F;"/>
<path id="Shape-1" d="M40.056,0.062c-5.292,-0.038 -7.957,2.59 -7.994,7.881c-0.037,5.292 2.591,7.957 7.883,7.995c5.291,0.036 7.956,-2.592 7.993,-7.884c0.037,-5.29 -2.591,-7.956 -7.882,-7.992Zm-0.056,13.932c4.021,0 6.032,-2.011 6.032,-6.033c0,-4.02 -2.011,-6.031 -6.032,-6.031c-4.021,0 -6.032,2.011 -6.032,6.031c0,4.022 2.011,6.033 6.032,6.033Zm-0.666,-5.439l0,3.432c0,0.311 0.298,0.563 0.666,0.563c0.368,0 0.666,-0.252 0.666,-0.563l0,-3.758c0,-0.022 -0.001,-0.043 -0.004,-0.064l0,-0.929l-3.77,-0.014c-0.368,0 -0.666,0.297 -0.666,0.666c0,0.367 0.298,0.667 0.666,0.667l2.442,0Z" style="fill:#FF2A4F;"/>
<path id="Shape-11" d="M24.056,15.938c-5.292,0.038 -7.957,-2.59 -7.994,-7.881c-0.037,-5.292 2.591,-7.957 7.883,-7.995c5.291,-0.036 7.956,2.592 7.993,7.884c0.037,5.29 -2.591,7.956 -7.882,7.992Zm-0.056,-13.932c4.021,0 6.032,2.011 6.032,6.033c0,4.02 -2.011,6.031 -6.032,6.031c-4.021,0 -6.032,-2.011 -6.032,-6.031c0,-4.022 2.011,-6.033 6.032,-6.033Zm-0.666,5.439l0,-3.432c0,-0.311 0.298,-0.563 0.666,-0.563c0.368,0 0.666,0.252 0.666,0.563l0,3.758c0,0.022 -0.001,0.043 -0.004,0.064l0,0.929l-3.77,0.014c-0.368,0 -0.666,-0.297 -0.666,-0.666c0,-0.367 0.298,-0.667 0.666,-0.667l2.442,0Z" style="fill:#FF2A4F;"/>
<path id="Standby" d="M2.985,1.795c0.594,0.042 1.254,0.657 1.329,1.208c0.013,0.095 0.017,0.19 0.014,0.284c-1.36,0.953 -2.04,2.586 -2.04,4.898c0,3.933 1.967,5.899 5.9,5.899c3.933,0 5.9,-1.966 5.9,-5.899c0,-2.213 -0.623,-3.803 -1.868,-4.772c0.001,-0.068 0.008,-0.138 0.022,-0.21c0.093,-0.501 0.705,-1.096 1.211,-1.163c0.078,-0.011 0.157,-0.015 0.235,-0.014c1.489,1.276 2.244,3.299 2.264,6.068c0.036,5.176 -2.534,7.782 -7.71,7.818c-5.175,0.037 -7.781,-2.534 -7.818,-7.71c-0.02,-2.998 0.833,-5.134 2.561,-6.407Zm5.424,-1.708c0.732,0 1.325,0.593 1.325,1.326l0,5.3c0,0.732 -0.593,1.325 -1.325,1.325c-0.732,0 -1.325,-0.593 -1.325,-1.325l0,-5.3c0,-0.733 0.593,-1.326 1.325,-1.326Z" style="fill:#FF2A4F;"/>
<path d="M66.979,7.42l-16.802,-2.669l-0.156,0.988l16.802,2.669l0.156,-0.988Z" style="fill:#FF2A4F;"/>
</svg>