<svg xmlns="http://www.w3.org/2000/svg" xmlns:xlink="http://www.w3.org/1999/xlink" width="100%" height="100%" version="1.1" viewBox="0 0 270 50" xml:space="preserve" style="fill-rule:evenodd;clip-rule:evenodd;stroke-linecap:round;stroke-linejoin:round;stroke-miterlimit:3"><g transform="matrix(1,0,0,1,-22,-22)"><g><path d="M117.59,49.231C108.555,49.231 101.275,56.512 101.275,65.607C101.275,74.58 108.555,81.918 117.59,81.918C119.995,81.918 123.31,81.983 127.6,79.126C129.095,78.152 129.94,76.464 129.16,74.84C128.38,73.278 126.365,72.367 124.87,73.343C121.75,75.361 119.085,75.491 117.59,75.491C113.235,75.491 109.595,72.692 108.23,68.788L130.655,68.788C132.475,68.788 133.905,67.359 133.905,65.607C133.905,54.943 125.455,49.231 117.59,49.231ZM117.59,55.658C121.49,55.658 125.65,57.76 127.015,62.361L108.23,62.361C109.595,58.483 113.235,55.658 117.59,55.658Z" transform="matrix(0.953031,0,0,0.953031,29.7568,-8.43946)" style="fill:#ff2a4f;fill-rule:nonzero"/><g><path d="M152.753,49.231L147.031,49.231C147.031,46.306 147.941,43.771 149.891,41.821C150.996,40.716 152.231,39.936 153.596,39.481C155.286,38.896 156.131,37.011 155.546,35.386C154.961,33.696 153.076,32.786 151.451,33.436C149.111,34.216 147.096,35.516 145.343,37.271C142.227,40.391 140.539,44.616 140.604,49.231L137.029,49.231C135.273,49.231 133.844,50.659 133.844,52.412C133.844,54.229 135.273,55.658 137.027,55.658L140.604,55.658L140.604,78.659C140.604,80.484 142.032,81.918 143.785,81.918C145.603,81.918 147.031,80.484 147.031,78.659L147.031,55.658L152.751,55.658C154.572,55.658 156.001,54.229 156.001,52.412C156.001,50.659 154.572,49.231 152.753,49.231Z" transform="matrix(0.953031,0,0,0.953031,29.7568,-8.43946) matrix(1,0,0,1,1.04928,0)" style="fill:#ff2a4f;fill-rule:nonzero"/></g><g><path d="M172.125,81.918C181.164,81.918 188.436,74.577 188.436,65.574C188.436,56.506 181.164,49.231 172.125,49.231C163.151,49.231 155.814,56.506 155.814,65.574C155.814,74.577 163.151,81.918 172.125,81.918ZM172.125,55.658C177.587,55.658 182.009,60.094 182.009,65.574C182.009,70.989 177.587,75.491 172.125,75.491C166.663,75.491 162.241,70.989 162.241,65.574C162.241,60.094 166.663,55.658 172.125,55.658Z" transform="matrix(0.953031,0,0,0.953031,29.7568,-8.43946) matrix(1,0,0,1,1.04928,0)" style="fill:#ff2a4f;fill-rule:nonzero"/></g><g><path d="M208.59,49.231C199.616,49.231 192.279,56.505 192.279,65.562L192.279,78.659C192.279,80.484 193.707,81.918 195.46,81.918C197.278,81.918 198.706,80.484 198.706,78.659L198.706,65.562C198.706,60.088 203.128,55.658 208.59,55.658C214.052,55.658 218.474,60.088 218.474,65.562L218.474,78.659C218.474,80.484 219.902,81.918 221.655,81.918C223.473,81.918 224.901,80.484 224.901,78.659L224.901,65.562C224.901,56.505 217.564,49.231 208.59,49.231Z" transform="matrix(0.953031,0,0,0.953031,29.7568,-8.43946) matrix(1,0,0,1,1.04928,0)" style="fill:#ff2a4f;fill-rule:nonzero"/></g><g><path d="M229,39.932C229,38.314 227.557,37 225.78,37L225.22,37C223.443,37 222,38.314 222,39.932L222,68.068C222,69.686 223.443,71 225.22,71L225.78,71C227.557,71 229,69.686 229,68.068L229,39.932Z" transform="matrix(0.953031,0,0,0.953031,29.7568,-8.43946) matrix(0.899386,0,0,0.987561,32.4832,12.1884)" style="fill:#ff2a4f"/></g><g><path d="M254.996,81.918C260.586,81.918 265.721,79.126 268.711,74.454C269.686,72.963 269.296,70.954 267.801,69.982C266.306,69.074 264.291,69.463 263.316,70.954C261.496,73.806 258.376,75.491 254.996,75.491C249.601,75.491 245.116,71.019 245.116,65.639C245.116,60.195 249.601,55.788 254.996,55.788C258.571,55.788 261.821,57.667 263.576,60.713C264.486,62.204 266.436,62.723 267.996,61.88C269.491,60.973 270.076,59.028 269.166,57.473C266.241,52.477 260.846,49.361 254.996,49.361C246.026,49.361 238.754,56.63 238.754,65.639C238.754,74.583 246.026,81.918 254.996,81.918Z" transform="matrix(0.953031,0,0,0.953031,29.7568,-8.43946) matrix(1,0,0,1,4.09857,0)" style="fill:#ff2a4f;fill-rule:nonzero"/></g></g><g id="free-logo"><path d="M0,1.1L128.85,1.1M-106.5,-36.55L-86.1,-36.55M48.9,39.6L87.4,39.6M-33.7,1.1L-29.15,1.1M113.15,39.5L136.35,39.5C147.116,39.5 156.233,35.65 163.7,27.95C171.4,20.383 175.25,11.25 175.25,0.55C175.25,-10.083 171.4,-19.317 163.7,-27.15C156.167,-34.717 147.05,-38.5 136.35,-38.5L-45.05,-38.5" transform="matrix(0.329193,0,0,0.329193,61.059,53.6596)" style="fill:none;fill-rule:nonzero;stroke:#ff2a4f;stroke-width:18.23px"/></g></g></svg>